<?xml version="1.0" encoding="UTF-8"?>
<svg xmlns="http://www.w3.org/2000/svg" width="560" height="560" viewBox="0 0 560 560">
  <defs>
    <style type="text/css"><![CDATA[text{font-family:'Inter','Segoe UI',Arial,sans-serif}]]></style>

  </defs>
<g id="Bohr-Fe" opacity="1"><circle cx="280" cy="280" r="20.944" fill="#2F6BE8" fill-opacity="0.55"/><circle cx="280" cy="280" r="109.648" fill="none" stroke="#2F6BE8" stroke-opacity="0.45" stroke-width="2.2176"/><circle cx="280" cy="170.352" r="7.392" fill="#2F6BE8" fill-opacity="0.9"/><circle cx="280" cy="389.648" r="7.392" fill="#2F6BE8" fill-opacity="0.9"/><circle cx="280" cy="280" r="155.232" fill="none" stroke="#2F6BE8" stroke-opacity="0.45" stroke-width="2.2176"/><circle cx="322.8992" cy="130.8134" r="7.392" fill="#2F6BE8" fill-opacity="0.9"/><circle cx="415.8252" cy="204.8435" r="7.392" fill="#2F6BE8" fill-opacity="0.9"/><circle cx="429.1866" cy="322.8992" r="7.392" fill="#2F6BE8" fill-opacity="0.9"/><circle cx="355.1565" cy="415.8252" r="7.392" fill="#2F6BE8" fill-opacity="0.9"/><circle cx="237.1008" cy="429.1866" r="7.392" fill="#2F6BE8" fill-opacity="0.9"/><circle cx="144.1748" cy="355.1565" r="7.392" fill="#2F6BE8" fill-opacity="0.9"/><circle cx="130.8134" cy="237.1008" r="7.392" fill="#2F6BE8" fill-opacity="0.9"/><circle cx="204.8435" cy="144.1748" r="7.392" fill="#2F6BE8" fill-opacity="0.9"/><circle cx="280" cy="280" r="200.816" fill="none" stroke="#2F6BE8" stroke-opacity="0.45" stroke-width="2.2176"/><circle cx="386.6707" cy="109.8576" r="7.392" fill="#2F6BE8" fill-opacity="0.9"/><circle cx="449.929" cy="172.9897" r="7.392" fill="#2F6BE8" fill-opacity="0.9"/><circle cx="479.5308" cy="257.3165" r="7.392" fill="#2F6BE8" fill-opacity="0.9"/><circle cx="469.613" cy="346.136" r="7.392" fill="#2F6BE8" fill-opacity="0.9"/><circle cx="422.1401" cy="421.8565" r="7.392" fill="#2F6BE8" fill-opacity="0.9"/><circle cx="346.5146" cy="469.4805" r="7.392" fill="#2F6BE8" fill-opacity="0.9"/><circle cx="257.715" cy="479.5757" r="7.392" fill="#2F6BE8" fill-opacity="0.9"/><circle cx="173.3293" cy="450.1424" r="7.392" fill="#2F6BE8" fill-opacity="0.9"/><circle cx="110.071" cy="387.0103" r="7.392" fill="#2F6BE8" fill-opacity="0.9"/><circle cx="80.4692" cy="302.6835" r="7.392" fill="#2F6BE8" fill-opacity="0.9"/><circle cx="90.387" cy="213.864" r="7.392" fill="#2F6BE8" fill-opacity="0.9"/><circle cx="137.8599" cy="138.1435" r="7.392" fill="#2F6BE8" fill-opacity="0.9"/><circle cx="213.4854" cy="90.5195" r="7.392" fill="#2F6BE8" fill-opacity="0.9"/><circle cx="302.285" cy="80.4243" r="7.392" fill="#2F6BE8" fill-opacity="0.9"/><circle cx="280" cy="280" r="246.4" fill="none" stroke="#2F6BE8" stroke-opacity="0.45" stroke-width="2.2176"/><circle cx="463.4801" cy="115.5372" r="7.392" fill="#2F6BE8" fill-opacity="0.9"/><circle cx="96.5199" cy="444.4628" r="7.392" fill="#2F6BE8" fill-opacity="0.9"/><text x="280" y="600.32" text-anchor="middle" style="font-size:41.888px;font-weight:600" fill="#0E2039" fill-opacity="0.8">Fe</text></g>
</svg>
